<mxfile host="app.diagrams.net" agent="Mozilla/5.0 (X11; Linux x86_64; rv:136.0) Gecko/20100101 Firefox/136.0" version="26.2.1">
  <diagram name="Page-1" id="XxBvNVG7_kwx79TWYc0r">
    <mxGraphModel dx="2120" dy="1157" grid="1" gridSize="10" guides="1" tooltips="1" connect="1" arrows="1" fold="1" page="1" pageScale="1" pageWidth="827" pageHeight="1169" math="0" shadow="0">
      <root>
        <mxCell id="0" />
        <mxCell id="1" parent="0" />
        <mxCell id="9mbf9N-BkKX1y--hr0TY-1" value="&lt;b&gt;Student Information&lt;br&gt;System&lt;/b&gt;" style="ellipse;whiteSpace=wrap;html=1;" vertex="1" parent="1">
          <mxGeometry x="370" y="300" width="210" height="140" as="geometry" />
        </mxCell>
        <mxCell id="9mbf9N-BkKX1y--hr0TY-9" style="edgeStyle=orthogonalEdgeStyle;rounded=0;orthogonalLoop=1;jettySize=auto;html=1;entryX=0;entryY=0;entryDx=0;entryDy=0;" edge="1" parent="1" source="9mbf9N-BkKX1y--hr0TY-30" target="9mbf9N-BkKX1y--hr0TY-1">
          <mxGeometry relative="1" as="geometry">
            <mxPoint x="410" y="90" as="targetPoint" />
            <Array as="points">
              <mxPoint x="400" y="215" />
              <mxPoint x="401" y="215" />
            </Array>
          </mxGeometry>
        </mxCell>
        <mxCell id="9mbf9N-BkKX1y--hr0TY-16" style="edgeStyle=orthogonalEdgeStyle;rounded=0;orthogonalLoop=1;jettySize=auto;html=1;entryX=0.056;entryY=0.342;entryDx=0;entryDy=0;entryPerimeter=0;" edge="1" parent="1" source="9mbf9N-BkKX1y--hr0TY-25" target="9mbf9N-BkKX1y--hr0TY-1">
          <mxGeometry relative="1" as="geometry">
            <mxPoint x="120" y="350" as="targetPoint" />
            <Array as="points">
              <mxPoint x="120" y="348" />
            </Array>
          </mxGeometry>
        </mxCell>
        <mxCell id="9mbf9N-BkKX1y--hr0TY-29" style="edgeStyle=orthogonalEdgeStyle;rounded=0;orthogonalLoop=1;jettySize=auto;html=1;" edge="1" parent="1" source="9mbf9N-BkKX1y--hr0TY-3" target="9mbf9N-BkKX1y--hr0TY-25">
          <mxGeometry relative="1" as="geometry" />
        </mxCell>
        <mxCell id="9mbf9N-BkKX1y--hr0TY-34" style="edgeStyle=orthogonalEdgeStyle;rounded=0;orthogonalLoop=1;jettySize=auto;html=1;entryX=0;entryY=0.5;entryDx=0;entryDy=0;" edge="1" parent="1" source="9mbf9N-BkKX1y--hr0TY-3" target="9mbf9N-BkKX1y--hr0TY-30">
          <mxGeometry relative="1" as="geometry" />
        </mxCell>
        <mxCell id="9mbf9N-BkKX1y--hr0TY-3" value="&lt;b&gt;Admin&lt;/b&gt;" style="ellipse;whiteSpace=wrap;html=1;" vertex="1" parent="1">
          <mxGeometry x="40" y="40" width="160" height="100" as="geometry" />
        </mxCell>
        <mxCell id="9mbf9N-BkKX1y--hr0TY-13" style="edgeStyle=orthogonalEdgeStyle;rounded=0;orthogonalLoop=1;jettySize=auto;html=1;entryX=0;entryY=1;entryDx=0;entryDy=0;" edge="1" parent="1" source="9mbf9N-BkKX1y--hr0TY-42" target="9mbf9N-BkKX1y--hr0TY-1">
          <mxGeometry relative="1" as="geometry">
            <mxPoint x="400" y="650" as="targetPoint" />
            <Array as="points">
              <mxPoint x="400" y="525" />
              <mxPoint x="401" y="525" />
            </Array>
          </mxGeometry>
        </mxCell>
        <mxCell id="9mbf9N-BkKX1y--hr0TY-19" style="edgeStyle=orthogonalEdgeStyle;rounded=0;orthogonalLoop=1;jettySize=auto;html=1;entryX=0.027;entryY=0.644;entryDx=0;entryDy=0;entryPerimeter=0;" edge="1" parent="1" source="9mbf9N-BkKX1y--hr0TY-47" target="9mbf9N-BkKX1y--hr0TY-1">
          <mxGeometry relative="1" as="geometry">
            <mxPoint x="120" y="370" as="targetPoint" />
            <Array as="points">
              <mxPoint x="120" y="390" />
            </Array>
          </mxGeometry>
        </mxCell>
        <mxCell id="9mbf9N-BkKX1y--hr0TY-46" style="edgeStyle=orthogonalEdgeStyle;rounded=0;orthogonalLoop=1;jettySize=auto;html=1;entryX=0;entryY=0.5;entryDx=0;entryDy=0;" edge="1" parent="1" source="9mbf9N-BkKX1y--hr0TY-4" target="9mbf9N-BkKX1y--hr0TY-42">
          <mxGeometry relative="1" as="geometry" />
        </mxCell>
        <mxCell id="9mbf9N-BkKX1y--hr0TY-49" style="edgeStyle=orthogonalEdgeStyle;rounded=0;orthogonalLoop=1;jettySize=auto;html=1;entryX=0.5;entryY=1;entryDx=0;entryDy=0;" edge="1" parent="1" source="9mbf9N-BkKX1y--hr0TY-4" target="9mbf9N-BkKX1y--hr0TY-47">
          <mxGeometry relative="1" as="geometry" />
        </mxCell>
        <mxCell id="9mbf9N-BkKX1y--hr0TY-4" value="&lt;b&gt;Teachers&lt;/b&gt;" style="ellipse;whiteSpace=wrap;html=1;" vertex="1" parent="1">
          <mxGeometry x="40" y="600" width="160" height="100" as="geometry" />
        </mxCell>
        <mxCell id="9mbf9N-BkKX1y--hr0TY-11" style="edgeStyle=orthogonalEdgeStyle;rounded=0;orthogonalLoop=1;jettySize=auto;html=1;entryX=1;entryY=0;entryDx=0;entryDy=0;" edge="1" parent="1" source="9mbf9N-BkKX1y--hr0TY-62" target="9mbf9N-BkKX1y--hr0TY-1">
          <mxGeometry relative="1" as="geometry">
            <mxPoint x="550.0000000000002" y="90" as="targetPoint" />
            <Array as="points">
              <mxPoint x="545" y="320" />
            </Array>
          </mxGeometry>
        </mxCell>
        <mxCell id="9mbf9N-BkKX1y--hr0TY-61" style="edgeStyle=orthogonalEdgeStyle;rounded=0;orthogonalLoop=1;jettySize=auto;html=1;entryX=0.5;entryY=0;entryDx=0;entryDy=0;" edge="1" parent="1" source="9mbf9N-BkKX1y--hr0TY-5" target="9mbf9N-BkKX1y--hr0TY-59">
          <mxGeometry relative="1" as="geometry" />
        </mxCell>
        <mxCell id="9mbf9N-BkKX1y--hr0TY-64" style="edgeStyle=orthogonalEdgeStyle;rounded=0;orthogonalLoop=1;jettySize=auto;html=1;entryX=1;entryY=0.5;entryDx=0;entryDy=0;" edge="1" parent="1" source="9mbf9N-BkKX1y--hr0TY-5" target="9mbf9N-BkKX1y--hr0TY-62">
          <mxGeometry relative="1" as="geometry" />
        </mxCell>
        <mxCell id="9mbf9N-BkKX1y--hr0TY-5" value="&lt;b&gt;Student&lt;/b&gt;" style="ellipse;whiteSpace=wrap;html=1;" vertex="1" parent="1">
          <mxGeometry x="740" y="40" width="160" height="100" as="geometry" />
        </mxCell>
        <mxCell id="9mbf9N-BkKX1y--hr0TY-12" style="edgeStyle=orthogonalEdgeStyle;rounded=0;orthogonalLoop=1;jettySize=auto;html=1;entryX=1;entryY=1;entryDx=0;entryDy=0;" edge="1" parent="1" source="9mbf9N-BkKX1y--hr0TY-50" target="9mbf9N-BkKX1y--hr0TY-1">
          <mxGeometry relative="1" as="geometry">
            <mxPoint x="550.0000000000002" y="650" as="targetPoint" />
            <Array as="points">
              <mxPoint x="549" y="530" />
              <mxPoint x="549" y="530" />
            </Array>
          </mxGeometry>
        </mxCell>
        <mxCell id="9mbf9N-BkKX1y--hr0TY-54" style="edgeStyle=orthogonalEdgeStyle;rounded=0;orthogonalLoop=1;jettySize=auto;html=1;entryX=1;entryY=0.5;entryDx=0;entryDy=0;" edge="1" parent="1" source="9mbf9N-BkKX1y--hr0TY-6" target="9mbf9N-BkKX1y--hr0TY-50">
          <mxGeometry relative="1" as="geometry" />
        </mxCell>
        <mxCell id="9mbf9N-BkKX1y--hr0TY-57" style="edgeStyle=orthogonalEdgeStyle;rounded=0;orthogonalLoop=1;jettySize=auto;html=1;entryX=0.5;entryY=1;entryDx=0;entryDy=0;" edge="1" parent="1" source="9mbf9N-BkKX1y--hr0TY-6" target="9mbf9N-BkKX1y--hr0TY-55">
          <mxGeometry relative="1" as="geometry" />
        </mxCell>
        <mxCell id="9mbf9N-BkKX1y--hr0TY-6" value="&lt;b&gt;Parents&lt;/b&gt;" style="ellipse;whiteSpace=wrap;html=1;" vertex="1" parent="1">
          <mxGeometry x="740" y="600" width="160" height="100" as="geometry" />
        </mxCell>
        <mxCell id="9mbf9N-BkKX1y--hr0TY-21" style="edgeStyle=orthogonalEdgeStyle;rounded=0;orthogonalLoop=1;jettySize=auto;html=1;entryX=0.95;entryY=0.292;entryDx=0;entryDy=0;entryPerimeter=0;" edge="1" parent="1" source="9mbf9N-BkKX1y--hr0TY-59" target="9mbf9N-BkKX1y--hr0TY-1">
          <mxGeometry relative="1" as="geometry">
            <Array as="points">
              <mxPoint x="569" y="340" />
            </Array>
          </mxGeometry>
        </mxCell>
        <mxCell id="9mbf9N-BkKX1y--hr0TY-25" value="Update/Delete&lt;br&gt;Student Record" style="ellipse;whiteSpace=wrap;html=1;" vertex="1" parent="1">
          <mxGeometry x="65" y="290" width="110" height="80" as="geometry" />
        </mxCell>
        <mxCell id="9mbf9N-BkKX1y--hr0TY-30" value="Add Student" style="ellipse;whiteSpace=wrap;html=1;" vertex="1" parent="1">
          <mxGeometry x="340" y="50" width="110" height="80" as="geometry" />
        </mxCell>
        <mxCell id="9mbf9N-BkKX1y--hr0TY-42" value="Edit Grades" style="ellipse;whiteSpace=wrap;html=1;" vertex="1" parent="1">
          <mxGeometry x="350" y="610" width="110" height="80" as="geometry" />
        </mxCell>
        <mxCell id="9mbf9N-BkKX1y--hr0TY-47" value="Mark Attendance" style="ellipse;whiteSpace=wrap;html=1;" vertex="1" parent="1">
          <mxGeometry x="65" y="370" width="110" height="80" as="geometry" />
        </mxCell>
        <mxCell id="9mbf9N-BkKX1y--hr0TY-50" value="Generate &amp;amp; Receive&lt;br&gt;Reports" style="ellipse;whiteSpace=wrap;html=1;" vertex="1" parent="1">
          <mxGeometry x="500" y="610" width="110" height="80" as="geometry" />
        </mxCell>
        <mxCell id="9mbf9N-BkKX1y--hr0TY-55" value="Request&lt;br&gt;performance&lt;br&gt;details" style="ellipse;whiteSpace=wrap;html=1;" vertex="1" parent="1">
          <mxGeometry x="765" y="370" width="110" height="80" as="geometry" />
        </mxCell>
        <mxCell id="9mbf9N-BkKX1y--hr0TY-58" style="edgeStyle=orthogonalEdgeStyle;rounded=0;orthogonalLoop=1;jettySize=auto;html=1;entryX=0.994;entryY=0.643;entryDx=0;entryDy=0;entryPerimeter=0;" edge="1" parent="1" source="9mbf9N-BkKX1y--hr0TY-55" target="9mbf9N-BkKX1y--hr0TY-1">
          <mxGeometry relative="1" as="geometry">
            <Array as="points">
              <mxPoint x="710" y="390" />
              <mxPoint x="710" y="390" />
            </Array>
          </mxGeometry>
        </mxCell>
        <mxCell id="9mbf9N-BkKX1y--hr0TY-59" value="View Courses" style="ellipse;whiteSpace=wrap;html=1;" vertex="1" parent="1">
          <mxGeometry x="765" y="290" width="110" height="80" as="geometry" />
        </mxCell>
        <mxCell id="9mbf9N-BkKX1y--hr0TY-62" value="Personal Information" style="ellipse;whiteSpace=wrap;html=1;" vertex="1" parent="1">
          <mxGeometry x="490" y="50" width="110" height="80" as="geometry" />
        </mxCell>
      </root>
    </mxGraphModel>
  </diagram>
</mxfile>
